<mxfile host="app.diagrams.net" modified="2024-05-06T23:16:52.392Z" agent="Mozilla/5.0 (Windows NT 10.0; Win64; x64) AppleWebKit/537.36 (KHTML, like Gecko) Chrome/124.0.0.0 Safari/537.36" etag="xhv-N-AFoT7fwqlj4NOr" version="24.3.1" type="google">
  <diagram name="Página-1" id="9NdwNLd4UahZ1fEsT_d1">
    <mxGraphModel grid="1" page="1" gridSize="10" guides="1" tooltips="1" connect="1" arrows="1" fold="1" pageScale="1" pageWidth="827" pageHeight="1169" math="0" shadow="0">
      <root>
        <mxCell id="0" />
        <mxCell id="1" parent="0" />
        <mxCell id="XCeR6Nfg9i_3IO53fhUJ-1" value="" style="shape=umlLifeline;perimeter=lifelinePerimeter;whiteSpace=wrap;html=1;container=1;dropTarget=0;collapsible=0;recursiveResize=0;outlineConnect=0;portConstraint=eastwest;newEdgeStyle={&quot;curved&quot;:0,&quot;rounded&quot;:0};participant=umlActor;" vertex="1" parent="1">
          <mxGeometry x="90" y="40" width="20" height="340" as="geometry" />
        </mxCell>
        <mxCell id="XCeR6Nfg9i_3IO53fhUJ-3" value="" style="html=1;points=[[0,0,0,0,5],[0,1,0,0,-5],[1,0,0,0,5],[1,1,0,0,-5]];perimeter=orthogonalPerimeter;outlineConnect=0;targetShapes=umlLifeline;portConstraint=eastwest;newEdgeStyle={&quot;curved&quot;:0,&quot;rounded&quot;:0};" vertex="1" parent="XCeR6Nfg9i_3IO53fhUJ-1">
          <mxGeometry x="5" y="50" width="10" height="270" as="geometry" />
        </mxCell>
        <mxCell id="XCeR6Nfg9i_3IO53fhUJ-2" value="Usuario" style="text;html=1;align=center;verticalAlign=middle;resizable=0;points=[];autosize=1;strokeColor=none;fillColor=none;" vertex="1" parent="1">
          <mxGeometry x="70" y="18" width="60" height="30" as="geometry" />
        </mxCell>
        <mxCell id="XCeR6Nfg9i_3IO53fhUJ-4" value="Aplicacion" style="shape=umlLifeline;perimeter=lifelinePerimeter;whiteSpace=wrap;html=1;container=1;dropTarget=0;collapsible=0;recursiveResize=0;outlineConnect=0;portConstraint=eastwest;newEdgeStyle={&quot;curved&quot;:0,&quot;rounded&quot;:0};" vertex="1" parent="1">
          <mxGeometry x="160" y="40" width="100" height="340" as="geometry" />
        </mxCell>
        <mxCell id="XCeR6Nfg9i_3IO53fhUJ-9" value="" style="html=1;points=[[0,0,0,0,5],[0,1,0,0,-5],[1,0,0,0,5],[1,1,0,0,-5]];perimeter=orthogonalPerimeter;outlineConnect=0;targetShapes=umlLifeline;portConstraint=eastwest;newEdgeStyle={&quot;curved&quot;:0,&quot;rounded&quot;:0};" vertex="1" parent="XCeR6Nfg9i_3IO53fhUJ-4">
          <mxGeometry x="45" y="50" width="10" height="80" as="geometry" />
        </mxCell>
        <mxCell id="XCeR6Nfg9i_3IO53fhUJ-5" value="Interfaz de manú" style="shape=umlLifeline;perimeter=lifelinePerimeter;whiteSpace=wrap;html=1;container=1;dropTarget=0;collapsible=0;recursiveResize=0;outlineConnect=0;portConstraint=eastwest;newEdgeStyle={&quot;curved&quot;:0,&quot;rounded&quot;:0};" vertex="1" parent="1">
          <mxGeometry x="300" y="40" width="100" height="340" as="geometry" />
        </mxCell>
        <mxCell id="XCeR6Nfg9i_3IO53fhUJ-10" value="" style="html=1;points=[[0,0,0,0,5],[0,1,0,0,-5],[1,0,0,0,5],[1,1,0,0,-5]];perimeter=orthogonalPerimeter;outlineConnect=0;targetShapes=umlLifeline;portConstraint=eastwest;newEdgeStyle={&quot;curved&quot;:0,&quot;rounded&quot;:0};" vertex="1" parent="XCeR6Nfg9i_3IO53fhUJ-5">
          <mxGeometry x="45" y="50" width="10" height="200" as="geometry" />
        </mxCell>
        <mxCell id="XCeR6Nfg9i_3IO53fhUJ-17" value="Se guarda infromación" style="html=1;verticalAlign=bottom;endArrow=block;curved=0;rounded=0;" edge="1" parent="XCeR6Nfg9i_3IO53fhUJ-5" target="XCeR6Nfg9i_3IO53fhUJ-14">
          <mxGeometry width="80" relative="1" as="geometry">
            <mxPoint x="55" y="209.99999999999994" as="sourcePoint" />
            <mxPoint x="135" y="210" as="targetPoint" />
          </mxGeometry>
        </mxCell>
        <mxCell id="XCeR6Nfg9i_3IO53fhUJ-20" value="" style="html=1;points=[[0,0,0,0,5],[0,1,0,0,-5],[1,0,0,0,5],[1,1,0,0,-5]];perimeter=orthogonalPerimeter;outlineConnect=0;targetShapes=umlLifeline;portConstraint=eastwest;newEdgeStyle={&quot;curved&quot;:0,&quot;rounded&quot;:0};" vertex="1" parent="XCeR6Nfg9i_3IO53fhUJ-5">
          <mxGeometry x="45" y="260" width="10" height="80" as="geometry" />
        </mxCell>
        <mxCell id="XCeR6Nfg9i_3IO53fhUJ-6" value="gestor de productos" style="shape=umlLifeline;perimeter=lifelinePerimeter;whiteSpace=wrap;html=1;container=1;dropTarget=0;collapsible=0;recursiveResize=0;outlineConnect=0;portConstraint=eastwest;newEdgeStyle={&quot;curved&quot;:0,&quot;rounded&quot;:0};" vertex="1" parent="1">
          <mxGeometry x="430" y="40" width="100" height="340" as="geometry" />
        </mxCell>
        <mxCell id="XCeR6Nfg9i_3IO53fhUJ-14" value="" style="html=1;points=[[0,0,0,0,5],[0,1,0,0,-5],[1,0,0,0,5],[1,1,0,0,-5]];perimeter=orthogonalPerimeter;outlineConnect=0;targetShapes=umlLifeline;portConstraint=eastwest;newEdgeStyle={&quot;curved&quot;:0,&quot;rounded&quot;:0};" vertex="1" parent="XCeR6Nfg9i_3IO53fhUJ-6">
          <mxGeometry x="45" y="60" width="10" height="180" as="geometry" />
        </mxCell>
        <mxCell id="XCeR6Nfg9i_3IO53fhUJ-7" value="gestor de notificaciones" style="shape=umlLifeline;perimeter=lifelinePerimeter;whiteSpace=wrap;html=1;container=1;dropTarget=0;collapsible=0;recursiveResize=0;outlineConnect=0;portConstraint=eastwest;newEdgeStyle={&quot;curved&quot;:0,&quot;rounded&quot;:0};" vertex="1" parent="1">
          <mxGeometry x="560" y="40" width="100" height="340" as="geometry" />
        </mxCell>
        <mxCell id="XCeR6Nfg9i_3IO53fhUJ-18" value="" style="html=1;points=[[0,0,0,0,5],[0,1,0,0,-5],[1,0,0,0,5],[1,1,0,0,-5]];perimeter=orthogonalPerimeter;outlineConnect=0;targetShapes=umlLifeline;portConstraint=eastwest;newEdgeStyle={&quot;curved&quot;:0,&quot;rounded&quot;:0};" vertex="1" parent="XCeR6Nfg9i_3IO53fhUJ-7">
          <mxGeometry x="45" y="170" width="10" height="140" as="geometry" />
        </mxCell>
        <mxCell id="XCeR6Nfg9i_3IO53fhUJ-8" value="Ingresa al sistema" style="html=1;verticalAlign=bottom;endArrow=block;curved=0;rounded=0;" edge="1" parent="1" target="XCeR6Nfg9i_3IO53fhUJ-9">
          <mxGeometry width="80" relative="1" as="geometry">
            <mxPoint x="100" y="110" as="sourcePoint" />
            <mxPoint x="180" y="110" as="targetPoint" />
          </mxGeometry>
        </mxCell>
        <mxCell id="XCeR6Nfg9i_3IO53fhUJ-11" value="" style="html=1;verticalAlign=bottom;endArrow=block;curved=0;rounded=0;" edge="1" parent="1">
          <mxGeometry width="80" relative="1" as="geometry">
            <mxPoint x="210" y="110" as="sourcePoint" />
            <mxPoint x="349.5" y="109.99999999999994" as="targetPoint" />
          </mxGeometry>
        </mxCell>
        <mxCell id="XCeR6Nfg9i_3IO53fhUJ-13" value="Formulario de registro" style="html=1;verticalAlign=bottom;endArrow=block;curved=0;rounded=0;" edge="1" parent="1" target="XCeR6Nfg9i_3IO53fhUJ-1">
          <mxGeometry width="80" relative="1" as="geometry">
            <mxPoint x="340" y="200" as="sourcePoint" />
            <mxPoint x="420" y="200" as="targetPoint" />
          </mxGeometry>
        </mxCell>
        <mxCell id="XCeR6Nfg9i_3IO53fhUJ-15" value="createUser()" style="html=1;verticalAlign=bottom;endArrow=block;curved=0;rounded=0;" edge="1" parent="1">
          <mxGeometry width="80" relative="1" as="geometry">
            <mxPoint x="478.71" y="149.99999999999994" as="sourcePoint" />
            <mxPoint x="348.9957142857142" y="149.99999999999994" as="targetPoint" />
          </mxGeometry>
        </mxCell>
        <mxCell id="XCeR6Nfg9i_3IO53fhUJ-16" value="Evío de infromación" style="html=1;verticalAlign=bottom;endArrow=block;curved=0;rounded=0;" edge="1" parent="1" target="XCeR6Nfg9i_3IO53fhUJ-5">
          <mxGeometry width="80" relative="1" as="geometry">
            <mxPoint x="100" y="230" as="sourcePoint" />
            <mxPoint x="180" y="230" as="targetPoint" />
          </mxGeometry>
        </mxCell>
        <mxCell id="XCeR6Nfg9i_3IO53fhUJ-19" value="registerUser()" style="html=1;verticalAlign=bottom;endArrow=block;curved=0;rounded=0;" edge="1" parent="1" target="XCeR6Nfg9i_3IO53fhUJ-7">
          <mxGeometry width="80" relative="1" as="geometry">
            <mxPoint x="480" y="260" as="sourcePoint" />
            <mxPoint x="560" y="260" as="targetPoint" />
          </mxGeometry>
        </mxCell>
        <mxCell id="XCeR6Nfg9i_3IO53fhUJ-21" value="sendMessage()" style="html=1;verticalAlign=bottom;endArrow=block;curved=0;rounded=0;" edge="1" parent="1" target="XCeR6Nfg9i_3IO53fhUJ-5">
          <mxGeometry width="80" relative="1" as="geometry">
            <mxPoint x="600" y="330" as="sourcePoint" />
            <mxPoint x="680" y="330" as="targetPoint" />
          </mxGeometry>
        </mxCell>
        <mxCell id="XCeR6Nfg9i_3IO53fhUJ-22" value="Se envia mensaje a email o se&amp;nbsp;&lt;div&gt;proyecta en pantalla&lt;/div&gt;" style="html=1;verticalAlign=bottom;endArrow=block;curved=0;rounded=0;" edge="1" parent="1">
          <mxGeometry width="80" relative="1" as="geometry">
            <mxPoint x="349.5" y="339.99999999999994" as="sourcePoint" />
            <mxPoint x="105" y="339.99999999999994" as="targetPoint" />
          </mxGeometry>
        </mxCell>
        <mxCell id="XCeR6Nfg9i_3IO53fhUJ-23" value="" style="shape=umlLifeline;perimeter=lifelinePerimeter;whiteSpace=wrap;html=1;container=1;dropTarget=0;collapsible=0;recursiveResize=0;outlineConnect=0;portConstraint=eastwest;newEdgeStyle={&quot;curved&quot;:0,&quot;rounded&quot;:0};participant=umlActor;" vertex="1" parent="1">
          <mxGeometry x="90" y="522" width="20" height="340" as="geometry" />
        </mxCell>
        <mxCell id="XCeR6Nfg9i_3IO53fhUJ-24" value="" style="html=1;points=[[0,0,0,0,5],[0,1,0,0,-5],[1,0,0,0,5],[1,1,0,0,-5]];perimeter=orthogonalPerimeter;outlineConnect=0;targetShapes=umlLifeline;portConstraint=eastwest;newEdgeStyle={&quot;curved&quot;:0,&quot;rounded&quot;:0};" vertex="1" parent="XCeR6Nfg9i_3IO53fhUJ-23">
          <mxGeometry x="5" y="50" width="10" height="270" as="geometry" />
        </mxCell>
        <mxCell id="XCeR6Nfg9i_3IO53fhUJ-25" value="Usuario" style="text;html=1;align=center;verticalAlign=middle;resizable=0;points=[];autosize=1;strokeColor=none;fillColor=none;" vertex="1" parent="1">
          <mxGeometry x="70" y="500" width="60" height="30" as="geometry" />
        </mxCell>
        <mxCell id="XCeR6Nfg9i_3IO53fhUJ-26" value="Aplicacion" style="shape=umlLifeline;perimeter=lifelinePerimeter;whiteSpace=wrap;html=1;container=1;dropTarget=0;collapsible=0;recursiveResize=0;outlineConnect=0;portConstraint=eastwest;newEdgeStyle={&quot;curved&quot;:0,&quot;rounded&quot;:0};" vertex="1" parent="1">
          <mxGeometry x="160" y="522" width="100" height="340" as="geometry" />
        </mxCell>
        <mxCell id="XCeR6Nfg9i_3IO53fhUJ-27" value="" style="html=1;points=[[0,0,0,0,5],[0,1,0,0,-5],[1,0,0,0,5],[1,1,0,0,-5]];perimeter=orthogonalPerimeter;outlineConnect=0;targetShapes=umlLifeline;portConstraint=eastwest;newEdgeStyle={&quot;curved&quot;:0,&quot;rounded&quot;:0};" vertex="1" parent="XCeR6Nfg9i_3IO53fhUJ-26">
          <mxGeometry x="45" y="50" width="10" height="120" as="geometry" />
        </mxCell>
        <mxCell id="XCeR6Nfg9i_3IO53fhUJ-28" value="Interfaz de manú" style="shape=umlLifeline;perimeter=lifelinePerimeter;whiteSpace=wrap;html=1;container=1;dropTarget=0;collapsible=0;recursiveResize=0;outlineConnect=0;portConstraint=eastwest;newEdgeStyle={&quot;curved&quot;:0,&quot;rounded&quot;:0};" vertex="1" parent="1">
          <mxGeometry x="300" y="522" width="100" height="340" as="geometry" />
        </mxCell>
        <mxCell id="XCeR6Nfg9i_3IO53fhUJ-29" value="" style="html=1;points=[[0,0,0,0,5],[0,1,0,0,-5],[1,0,0,0,5],[1,1,0,0,-5]];perimeter=orthogonalPerimeter;outlineConnect=0;targetShapes=umlLifeline;portConstraint=eastwest;newEdgeStyle={&quot;curved&quot;:0,&quot;rounded&quot;:0};" vertex="1" parent="XCeR6Nfg9i_3IO53fhUJ-28">
          <mxGeometry x="45" y="50" width="10" height="240" as="geometry" />
        </mxCell>
        <mxCell id="XCeR6Nfg9i_3IO53fhUJ-32" value="gestor de productos" style="shape=umlLifeline;perimeter=lifelinePerimeter;whiteSpace=wrap;html=1;container=1;dropTarget=0;collapsible=0;recursiveResize=0;outlineConnect=0;portConstraint=eastwest;newEdgeStyle={&quot;curved&quot;:0,&quot;rounded&quot;:0};" vertex="1" parent="1">
          <mxGeometry x="430" y="522" width="100" height="340" as="geometry" />
        </mxCell>
        <mxCell id="XCeR6Nfg9i_3IO53fhUJ-33" value="" style="html=1;points=[[0,0,0,0,5],[0,1,0,0,-5],[1,0,0,0,5],[1,1,0,0,-5]];perimeter=orthogonalPerimeter;outlineConnect=0;targetShapes=umlLifeline;portConstraint=eastwest;newEdgeStyle={&quot;curved&quot;:0,&quot;rounded&quot;:0};" vertex="1" parent="XCeR6Nfg9i_3IO53fhUJ-32">
          <mxGeometry x="45" y="118" width="10" height="180" as="geometry" />
        </mxCell>
        <mxCell id="XCeR6Nfg9i_3IO53fhUJ-34" value="API" style="shape=umlLifeline;perimeter=lifelinePerimeter;whiteSpace=wrap;html=1;container=1;dropTarget=0;collapsible=0;recursiveResize=0;outlineConnect=0;portConstraint=eastwest;newEdgeStyle={&quot;curved&quot;:0,&quot;rounded&quot;:0};" vertex="1" parent="1">
          <mxGeometry x="560" y="522" width="100" height="340" as="geometry" />
        </mxCell>
        <mxCell id="XCeR6Nfg9i_3IO53fhUJ-35" value="" style="html=1;points=[[0,0,0,0,5],[0,1,0,0,-5],[1,0,0,0,5],[1,1,0,0,-5]];perimeter=orthogonalPerimeter;outlineConnect=0;targetShapes=umlLifeline;portConstraint=eastwest;newEdgeStyle={&quot;curved&quot;:0,&quot;rounded&quot;:0};" vertex="1" parent="XCeR6Nfg9i_3IO53fhUJ-34">
          <mxGeometry x="45" y="60" width="10" height="140" as="geometry" />
        </mxCell>
        <mxCell id="XCeR6Nfg9i_3IO53fhUJ-36" value="Ingresa al sistema" style="html=1;verticalAlign=bottom;endArrow=block;curved=0;rounded=0;" edge="1" parent="1" target="XCeR6Nfg9i_3IO53fhUJ-27">
          <mxGeometry width="80" relative="1" as="geometry">
            <mxPoint x="100" y="592" as="sourcePoint" />
            <mxPoint x="180" y="592" as="targetPoint" />
          </mxGeometry>
        </mxCell>
        <mxCell id="XCeR6Nfg9i_3IO53fhUJ-37" value="" style="html=1;verticalAlign=bottom;endArrow=block;curved=0;rounded=0;" edge="1" parent="1">
          <mxGeometry width="80" relative="1" as="geometry">
            <mxPoint x="210" y="592" as="sourcePoint" />
            <mxPoint x="349.5" y="592" as="targetPoint" />
          </mxGeometry>
        </mxCell>
        <mxCell id="XCeR6Nfg9i_3IO53fhUJ-41" value="Trae informacion&amp;nbsp;&lt;div&gt;productos&lt;/div&gt;" style="html=1;verticalAlign=bottom;endArrow=block;curved=0;rounded=0;" edge="1" parent="1" target="XCeR6Nfg9i_3IO53fhUJ-29">
          <mxGeometry width="80" relative="1" as="geometry">
            <mxPoint x="609.5" y="630.0000000000001" as="sourcePoint" />
            <mxPoint x="479.81034482758605" y="630.0000000000001" as="targetPoint" />
          </mxGeometry>
        </mxCell>
        <mxCell id="AfV3Ry44tyhOy-jAv_ms-3" value="crearProducto()&lt;div&gt;crearVariacion()&lt;/div&gt;&lt;div&gt;findById()&lt;/div&gt;&lt;div&gt;actualizarProducto()&lt;/div&gt;&lt;div&gt;eliminarProducto()&lt;/div&gt;" style="html=1;verticalAlign=bottom;endArrow=block;curved=0;rounded=0;" edge="1" parent="1">
          <mxGeometry width="80" relative="1" as="geometry">
            <mxPoint x="350" y="720" as="sourcePoint" />
            <mxPoint x="480" y="720" as="targetPoint" />
            <Array as="points">
              <mxPoint x="430" y="720" />
            </Array>
          </mxGeometry>
        </mxCell>
        <mxCell id="AfV3Ry44tyhOy-jAv_ms-4" value="Información traida del CRUD" style="html=1;verticalAlign=bottom;endArrow=block;curved=0;rounded=0;" edge="1" parent="1">
          <mxGeometry width="80" relative="1" as="geometry">
            <mxPoint x="340.37" y="790" as="sourcePoint" />
            <mxPoint x="100.00043478260875" y="790" as="targetPoint" />
          </mxGeometry>
        </mxCell>
        <mxCell id="AfV3Ry44tyhOy-jAv_ms-5" value="Se solicita informacion&lt;div&gt;de CRUD&lt;/div&gt;" style="html=1;verticalAlign=bottom;endArrow=block;curved=0;rounded=0;" edge="1" parent="1" target="XCeR6Nfg9i_3IO53fhUJ-28">
          <mxGeometry width="80" relative="1" as="geometry">
            <mxPoint x="210" y="660" as="sourcePoint" />
            <mxPoint x="290" y="660" as="targetPoint" />
          </mxGeometry>
        </mxCell>
        <mxCell id="AfV3Ry44tyhOy-jAv_ms-6" value="Se valida información" style="html=1;verticalAlign=bottom;endArrow=block;curved=0;rounded=0;" edge="1" parent="1">
          <mxGeometry width="80" relative="1" as="geometry">
            <mxPoint x="470" y="770" as="sourcePoint" />
            <mxPoint x="349.63043478260875" y="770" as="targetPoint" />
          </mxGeometry>
        </mxCell>
      </root>
    </mxGraphModel>
  </diagram>
</mxfile>
